# xmcd
#
# Track frame offsets: 
#        750
#        17791
#        36276
#        50865
#        67963
#        75873
#        81891
#        93161
#        108105
#        126556
#        142246
#        156895
#        174227
#        189252
#        202231
#        214489
#        223254
#        233928
#        246759
#        260952
#        266147
#        268283
#        275271
#        290148
#
# Disc length: 4150 seconds
#
# Revision: 0
# Processed by: cddbd v1.4PL0 Copyright (c) Steve Scherf et al.
# Submitted via: ExactAudioCopy v0.95a3
#
DISCID=7f102c18
DTITLE=Schürzenjäger - 30 wilde Jahre
DYEAR=2003
DGENRE=Folklore
TTITLE0=Schürzenjägerzeit
TTITLE1=Glory Hallelujah
TTITLE2=Morgen früh bin ich bei dir
TTITLE3=Tu´s jetzt
TTITLE4=Sommer in den Bergen
TTITLE5=In Bergwind Adler spielen
TTITLE6=Mein Tirol, ich vermisse dich
TTITLE7=Kalter-Kaffee-Morgen
TTITLE8=Esta Canción
TTITLE9=Die Party is no lang net aus
TTITLE10=Träume sind stärker
TTITLE11=Einmal eines Tages
TTITLE12=Großer Manitou
TTITLE13=Koane Mädels Nirgendwo
TTITLE14=Jeden Herzschlag wert
TTITLE15=Wenn die Nacht kommt
TTITLE16=Auf einmal warst du da
TTITLE17=Jeder kann ein Feigling sein (doch jeder auch ein Held)
TTITLE18=I wird da sein
TTITLE19=Jede Nacht a Lange Nacht
TTITLE20=I relax
TTITLE21=G`sundheit
TTITLE22=Wilde Jahre
TTITLE23=Manches geht niemals vorbei
EXTD=
EXTT0=
EXTT1=
EXTT2=
EXTT3=
EXTT4=
EXTT5=
EXTT6=
EXTT7=
EXTT8=
EXTT9=
EXTT10=
EXTT11=
EXTT12=
EXTT13=
EXTT14=
EXTT15=
EXTT16=
EXTT17=
EXTT18=
EXTT19=
EXTT20=
EXTT21=
EXTT22=
EXTT23=
PLAYORDER=
